<!DOCTYPE svg PUBLIC "-//W3C//DTD SVG 1.1//EN" "http://www.w3.org/Graphics/SVG/1.1/DTD/svg11.dtd">
<svg version="1.1" xmlns="http://www.w3.org/2000/svg" width="32" height="32" viewBox="0 0 32 32" shape-rendering="crispEdges">
  <rect width="32" height="32" fill="#4d4d4d"/>
  <rect x="2" y="2" width="28" height="28" fill="#5a5a5a"/>
  <rect x="2" y="2" width="28" height="1" fill="#707070"/>
  <rect x="2" y="3" width="1" height="27" fill="#707070"/>
   <rect x="3" y="29" width="27" height="1" fill="#404040"/>
   <rect x="29" y="3" width="1" height="27" fill="#404040"/>
  <rect x="3" y="3" width="3" height="3" fill="#404040"/>
  <rect x="26" y="3" width="3" height="3" fill="#404040"/>
  <rect x="3" y="26" width="3" height="3" fill="#404040"/>
  <rect x="26" y="26" width="3" height="3" fill="#404040"/>
  <rect x="4" y="4" width="1" height="1" fill="#6a6a6a"/>
  <rect x="27" y="4" width="1" height="1" fill="#6a6a6a"/>
  <rect x="4" y="27" width="1" height="1" fill="#6a6a6a"/>
  <rect x="27" y="27" width="1" height="1" fill="#6a6a6a"/>
  <rect x="10" y="10" width="2" height="2" fill="#505050"/>
  <rect x="20" y="10" width="2" height="2" fill="#505050"/>
  <rect x="10" y="20" width="2" height="2" fill="#505050"/>
  <rect x="20" y="20" width="2" height="2" fill="#505050"/>
  <rect x="15" y="15" width="2" height="2" fill="#4a4a4a"/>
  <rect x="8" y="18" width="4" height="1" fill="#4a4a4a"/>
   <rect x="19" y="8" width="1" height="4" fill="#4a4a4a"/>
</svg>
