<!DOCTYPE svg PUBLIC "-//W3C//DTD SVG 1.1//EN" "http://www.w3.org/Graphics/SVG/1.1/DTD/svg11.dtd">
<svg version="1.1" xmlns="http://www.w3.org/2000/svg" width="16" height="16" viewBox="0 0 16 16" shape-rendering="crispEdges">
  <!-- Helmet Top (Same as idle) -->
  <rect x="5" y="3" width="6" height="6" fill="#6B8E23"/>
  <rect x="6" y="2" width="4" height="1" fill="#556B2F"/>
  <rect x="4" y="4" width="1" height="4" fill="#8FBC8F"/>
  <rect x="11" y="4" width="1" height="4" fill="#8FBC8F"/>
  <rect x="5" y="8" width="6" height="1" fill="#8FBC8F"/>
  <rect x="6" y="4" width="1" height="1" fill="#9ACD32"/>
  <rect x="9" y="5" width="1" height="1" fill="#78866B"/>

  <!-- Shoulders/Body (Camo - Same base) -->
  <rect x="3" y="5" width="10" height="5" fill="#78866B"/>
  <rect x="2" y="6" width="1" height="3" fill="#6B8E23"/>
  <rect x="13" y="6" width="1" height="3" fill="#6B8E23"/>
  <rect x="4" y="9" width="8" height="2" fill="#78866B"/>
  <rect x="3" y="6" width="1" height="1" fill="#9ACD32"/>
  <rect x="12" y="7" width="1" height="1" fill="#AECDA1"/>
  <rect x="6" y="10" width="1" height="1" fill="#556B2F"/>
  <rect x="9" y="10" width="1" height="1" fill="#556B2F"/>

  <!-- Arms/Hands (Walking Swing) -->
  <rect x="1" y="6" width="2" height="2" fill="#6B8E23"/> <!-- Left Arm Back -->
  <rect x="13" y="8" width="2" height="2" fill="#6B8E23"/> <!-- Right Arm Forward -->
   <!-- Gun Barrel (Same position relative to body/aim) -->
  <rect x="7" y="0" width="2" height="4" fill="#616161"/>
  <rect x="7" y="0" width="2" height="1" fill="#424242"/>

  <!-- Feet/Boots (Walking - Left forward) -->
  <rect x="4" y="11" width="2" height="3" fill="#4B3A26"/> <!-- Left Boot Forward -->
  <rect x="8" y="10" width="2" height="2" fill="#4B3A26"/> <!-- Right Boot Back -->
</svg>
