<!DOCTYPE svg PUBLIC "-//W3C//DTD SVG 1.1//EN" "http://www.w3.org/Graphics/SVG/1.1/DTD/svg11.dtd">
<svg version="1.1" xmlns="http://www.w3.org/2000/svg" width="16" height="16" viewBox="0 0 16 16" shape-rendering="crispEdges">
  <!-- Plus Sign -->
  <rect x="6" y="2" width="4" height="12" fill="#32CD32"/> <!-- Vertical bar (Lime Green) -->
  <rect x="2" y="6" width="12" height="4" fill="#32CD32"/> <!-- Horizontal bar -->
  <!-- Inner Highlight -->
   <rect x="7" y="3" width="2" height="10" fill="#98FB98"/> <!-- Vertical (Pale Green) -->
   <rect x="3" y="7" width="10" height="2" fill="#98FB98"/> <!-- Horizontal -->
   <!-- Outline -->
   <rect x="6" y="1" width="4" height="1" fill="#228B22"/> <!-- Forest Green -->
   <rect x="6" y="14" width="4" height="1" fill="#228B22"/>
   <rect x="1" y="6" width="1" height="4" fill="#228B22"/>
   <rect x="14" y="6" width="1" height="4" fill="#228B22"/>
   <rect x="5" y="2" width="1" height="4" fill="#228B22"/>
   <rect x="10" y="2" width="1" height="4" fill="#228B22"/>
   <rect x="5" y="10" width="1" height="4" fill="#228B22"/>
   <rect x="10" y="10" width="1" height="4" fill="#228B22"/>
   <rect x="2" y="5" width="4" height="1" fill="#228B22"/>
   <rect x="10" y="5" width="4" height="1" fill="#228B22"/>
    <rect x="2" y="10" width="4" height="1" fill="#228B22"/>
   <rect x="10" y="10" width="4" height="1" fill="#228B22"/>
</svg>
