<!DOCTYPE svg PUBLIC "-//W3C//DTD SVG 1.1//EN" "http://www.w3.org/Graphics/SVG/1.1/DTD/svg11.dtd">
<svg version="1.1" xmlns="http://www.w3.org/2000/svg" width="16" height="16" viewBox="0 0 16 16" shape-rendering="crispEdges">
  <!-- Box -->
  <rect x="2" y="4" width="12" height="9" fill="#8B4513"/> <!-- Brown box -->
  <!-- Lid -->
  <rect x="1" y="3" width="14" height="2" fill="#A0522D"/> <!-- Lighter brown lid -->
  <!-- Border/Details -->
  <rect x="2" y="4" width="1" height="9" fill="#5C2E1A"/> <!-- Left Edge -->
  <rect x="13" y="4" width="1" height="9" fill="#5C2E1A"/> <!-- Right Edge -->
  <rect x="2" y="12" width="12" height="1" fill="#5C2E1A"/> <!-- Bottom Edge -->
  <rect x="1" y="3" width="1" height="2" fill="#5C2E1A"/> <!-- Lid Left -->
  <rect x="14" y="3" width="1" height="2" fill="#5C2E1A"/> <!-- Lid Right -->
  <rect x="1" y="4" width="14" height="1" fill="#5C2E1A"/> <!-- Lid Bottom -->
  <!-- Bullets inside indicator -->
  <rect x="5" y="6" width="2" height="3" fill="#FFD700"/> <!-- Bullet 1 -->
  <rect x="5" y="6" width="2" height="1" fill="#FFFACD"/> <!-- Tip 1 -->
  <rect x="9" y="6" width="2" height="3" fill="#FFD700"/> <!-- Bullet 2 -->
  <rect x="9" y="6" width="2" height="1" fill="#FFFACD"/> <!-- Tip 2 -->
   <rect x="7" y="9" width="2" height="3" fill="#FFD700"/> <!-- Bullet 3 -->
   <rect x="7" y="9" width="2" height="1" fill="#FFFACD"/> <!-- Tip 3 -->
   <!-- Latch -->
   <rect x="7" y="2" width="2" height="2" fill="#C0C0C0"/>
</svg>
