<!DOCTYPE svg PUBLIC "-//W3C//DTD SVG 1.1//EN" "http://www.w3.org/Graphics/SVG/1.1/DTD/svg11.dtd">
<svg version="1.1" xmlns="http://www.w3.org/2000/svg" width="16" height="16" viewBox="0 0 16 16" shape-rendering="crispEdges">
  <!-- Fire -->
  <rect x="6" y="10" width="4" height="4" fill="#FF4500"/> <!-- Base Red -->
  <rect x="5" y="8" width="6" height="2" fill="#FF8C00"/> <!-- Orange Mid -->
  <rect x="6" y="6" width="4" height="2" fill="#FFA500"/> <!-- Orange Top -->
  <rect x="7" y="4" width="2" height="2" fill="#FFD700"/> <!-- Yellow Tip -->
  <!-- Flickers -->
  <rect x="4" y="10" width="1" height="2" fill="#FF8C00"/>
  <rect x="11" y="10" width="1" height="2" fill="#FF8C00"/>
  <rect x="5" y="6" width="1" height="2" fill="#FFA500"/>
  <rect x="10" y="6" width="1" height="2" fill="#FFA500"/>
  <rect x="8" y="9" width="1" height="1" fill="#FFD700"/>
  <!-- Bullet Trails (Upwards) -->
  <rect x="1" y="1" width="2" height="4" fill="#C0C0C0"/>
  <rect x="1" y="0" width="2" height="1" fill="#FFFFFF"/>
  <rect x="13" y="4" width="2" height="4" fill="#C0C0C0"/>
   <rect x="13" y="3" width="2" height="1" fill="#FFFFFF"/>
   <rect x="7" y="0" width="2" height="4" fill="#C0C0C0"/>
   <rect x="7" y="0" width="2" height="1" fill="#FFFFFF"/>
</svg>
