<!DOCTYPE svg PUBLIC "-//W3C//DTD SVG 1.1//EN" "http://www.w3.org/Graphics/SVG/1.1/DTD/svg11.dtd">
<svg version="1.1" xmlns="http://www.w3.org/2000/svg" width="16" height="16" viewBox="0 0 16 16" shape-rendering="crispEdges">
  <!-- Explosion Core -->
  <rect x="6" y="6" width="4" height="4" fill="#FF4500"/> <!-- Orange Red -->
  <rect x="7" y="7" width="2" height="2" fill="#FFA500"/> <!-- Orange -->
  <!-- Spikes -->
  <rect x="7" y="2" width="2" height="4" fill="#FF8C00"/> <!-- Top -->
  <rect x="7" y="10" width="2" height="4" fill="#FF8C00"/> <!-- Bottom -->
  <rect x="2" y="7" width="4" height="2" fill="#FF8C00"/> <!-- Left -->
  <rect x="10" y="7" width="4" height="2" fill="#FF8C00"/> <!-- Right -->
  <!-- Diagonal Spikes -->
  <rect x="4" y="4" width="2" height="2" fill="#FFA500"/> <!-- TL -->
  <rect x="10" y="4" width="2" height="2" fill="#FFA500"/> <!-- TR -->
  <rect x="4" y="10" width="2" height="2" fill="#FFA500"/> <!-- BL -->
  <rect x="10" y="10" width="2" height="2" fill="#FFA500"/> <!-- BR -->
   <rect x="5" y="3" width="1" height="1" fill="#FFA500"/>
   <rect x="10" y="3" width="1" height="1" fill="#FFA500"/>
   <rect x="3" y="5" width="1" height="1" fill="#FFA500"/>
   <rect x="12" y="5" width="1" height="1" fill="#FFA500"/>
   <rect x="3" y="10" width="1" height="1" fill="#FFA500"/>
   <rect x="12" y="10" width="1" height="1" fill="#FFA500"/>
   <rect x="5" y="12" width="1" height="1" fill="#FFA500"/>
   <rect x="10" y="12" width="1" height="1" fill="#FFA500"/>
</svg>
